/* XPM */
static char * collectible2_xpm[] = {
"64 64 130 2",
"  	c None",
". 	c #113656",
"+ 	c #13324D",
"@ 	c #D4D4D3",
"# 	c #F7F8F8",
"$ 	c #ECEBEB",
"% 	c #0C3355",
"& 	c #02355E",
"* 	c #FDFDFD",
"= 	c #F4F4F3",
"- 	c #013661",
"; 	c #08355A",
"> 	c #EFF0F0",
", 	c #E4E3E3",
"' 	c #D9D8D7",
") 	c #F7F7F8",
"! 	c #F7F8F7",
"~ 	c #BEBCB9",
"{ 	c #1C4363",
"] 	c #3B5A73",
"^ 	c #DCDCDB",
"/ 	c #E8E7E7",
"( 	c #F8F7F8",
"_ 	c #F8F8F7",
": 	c #D0D5D9",
"< 	c #375874",
"[ 	c #0C395E",
"} 	c #A1ACB5",
"| 	c #AEABA9",
"1 	c #B6B1AC",
"2 	c #BDBAB5",
"3 	c #C5C4C2",
"4 	c #BAB6B2",
"5 	c #C0BCB7",
"6 	c #C1BDBA",
"7 	c #B3AEA9",
"8 	c #BAB2A9",
"9 	c #9D9B99",
"0 	c #34526A",
"a 	c #455B6D",
"b 	c #ACA7A1",
"c 	c #B3ACA5",
"d 	c #B9B0A7",
"e 	c #B8AFA6",
"f 	c #8A8C8D",
"g 	c #2C4D69",
"h 	c #A5A19C",
"i 	c #A09C97",
"j 	c #355167",
"k 	c #636E76",
"l 	c #D0CECC",
"m 	c #AEA9A3",
"n 	c #314E64",
"o 	c #224868",
"p 	c #949493",
"q 	c #828485",
"r 	c #234663",
"s 	c #7D8389",
"t 	c #AAA49E",
"u 	c #85888B",
"v 	c #264865",
"w 	c #989693",
"x 	c #6B757D",
"y 	c #193D5B",
"z 	c #E1E0DF",
"A 	c #C4C1BE",
"B 	c #CDCCCA",
"C 	c #7C8286",
"D 	c #3A556B",
"E 	c #536574",
"F 	c #576A79",
"G 	c #D2D0CE",
"H 	c #787E83",
"I 	c #133C5E",
"J 	c #3C586F",
"K 	c #133E60",
"L 	c #C8C5BF",
"M 	c #D8D7D5",
"N 	c #747D83",
"O 	c #5C6D7A",
"P 	c #C9C6C4",
"Q 	c #6D7982",
"R 	c #A2A1A0",
"S 	c #0F3C61",
"T 	c #1C405E",
"U 	c #144065",
"V 	c #4D6579",
"W 	c #657582",
"X 	c #82878B",
"Y 	c #4B5E6E",
"Z 	c #93918E",
"` 	c #8E8F90",
" .	c #7C8892",
"..	c #CBC9C6",
"+.	c #DEE0E1",
"@.	c #2B4B65",
"#.	c #4B5F70",
"$.	c #6B7780",
"%.	c #4F6474",
"&.	c #E7E8E8",
"*.	c #64727C",
"=.	c #A29E9A",
"-.	c #E0DFDE",
";.	c #9B9996",
">.	c #304F68",
",.	c #C5C9CD",
"'.	c #E8E8E7",
").	c #5C6A76",
"!.	c #B6B4B2",
"~.	c #F0EFEF",
"{.	c #BDC3C8",
"].	c #BBBFC2",
"^.	c #909AA2",
"/.	c #727F8A",
"(.	c #6B7D8D",
"_.	c #697F91",
":.	c #98A4AD",
"<.	c #5C768A",
"[.	c #415F7A",
"}.	c #425C71",
"|.	c #5D7182",
"1.	c #616F7A",
"2.	c #21435F",
"3.	c #75797C",
"4.	c #F0F0EF",
"5.	c #8C9093",
"6.	c #7C8D9C",
"7.	c #8293A0",
"8.	c #0A304F",
"9.	c #8898A4",
"                                                                                                                                ",
"                                                                                                  . +                           ",
"                          @ # $                                                                 % & .                           ",
"                            # * =                                                             & - &                             ",
"                            = * * =                                                         ; - - &                             ",
"                @ > $ $ $ , ' * * * $ @ $ ) ) = = = = = ) = = = = = = ) = = = = = ) ! # ~ { - - & ] ^ $ $ > > '                 ",
"                ^ * * * # * ^ > * * * / , # * # * # # # ( * # * * ) ) ) ! # # # * _ * : < - - - [ } * * * * * $                 ",
"                ^ * ~ | 1 2 1 3 * * * * , 4 2 ~ 2 5 5 6 6 5 3 _ * 6 1 7 1 4 8 2 2 5 9 0 - - - - a 1 4 b 9 ~ # >                 ",
"                ^ # 4 4 @ c d e @ * * * * ' e d d d 8 d 8 e c ) ( 5 8 8 8 d d d d f { & - - - g h 8 i j k 2 ) =                 ",
"                ^ * 2 1 = , 1 e c ^ * * * * l d 8 8 8 8 8 8 c = # 5 8 8 8 8 8 5 m n & - - - o p 5 q r & s 5 ) >                 ",
"                ^ * 2 m ^ * $ 2 e c ^ * * * ' t t 8 8 8 8 d c = # 5 d 8 8 8 e q u 0 - - - v w e x y & { h 2 # $                 ",
"                z * 2 e A * * ) B c 1 @ * * @ c A 8 8 8 8 d 1 = # 5 8 d 8 8 C y C D - - g w b E [ - & F 8 4 ) $                 ",
"                z * 2 8 1 $ * * * ^ 1 c 3 ! G m , z 8 d 8 d 1 = # 2 d 8 8 H I & s J & j 9 9 D & - - K p 8 2 ! /                 ",
"                , * 2 8 8 3 * * * * $ 5 c L 3 b M * z 7 d d 1 ) # 2 8 8 N I - ; s ] J h f v - - - & O 8 8 2 ! ,                 ",
"                / # 4 e e e P ) * * * ! L e t c B * * z | e 1 ) # 2 8 Q [ & - [ f f b Q I - - & ; F c d t R ! ,                 ",
"                / # B ^ G 5 m 4 $ * * * l t t e 3 * * * z 7 7 = # 4 x S - - - T 9 m t r & - & U Q h N a r V = ,                 ",
"                / * 4 / * # , 4 7 M # * @ m A 4 e B # * * $ 4 = > W [ - - & o f X Y Z y - & v ` Z D & & ;  .# ,                 ",
"                $ * 2 2 # * * = ..m A = ^ t @ $ 2 m 3 # * * / $ +.g - - & @.` Q [ D p I & #.p $.K - - & %.4 # /                 ",
"                $ * 2 c ..* * * * ^ 7 1 B c ..* = 3 m ..) * > &., ` v & j ` E & & E s y *.f D - - - & D h 2 # ,                 ",
"                = * ~ d e B * * * * $ 4 m h 4 ) * # l c 2 $ = &.+.~ p E u D - - & H u q x K - - - & D =.8 8 * ,                 ",
"                > * 4 e 7 e A = * * * M c m c l * * * l m 4 ^ / , ) B c E & - - K w i p I - - - S O m c Z 7 # ,                 ",
"                = * 4 ^ -.5 c 1 ^ * * ' t B L m 3 # * * ' 1 1 , , * # B ;.g & { k F a u [ - & @.u b C >.n | # ,                 ",
"                = * 4 ,.* * z 4 c 3 $ '.c B # l m 2 = * * ^ 1 = +.* * # l p Y ).@.& E Q & I F ;.H @.& & E 1 # ,                 ",
"                = * 5 1 $ * * ) @ 7 7 B c ~ # * ^ 7 1 $ * # ~ ' $ ' * * # 3 ;.r & & H a D f f j [ & - S ` 2 # ,                 ",
"                = * 5 1 5 # * * * = A t c 7 $ * * &.4 | +.* !.B ' !.@ * * ~.7 @.& v Z q c H I - - - & F 8 1 ( ,                 ",
"                = * ~ e e P # * * * = e m c 4 &.* * > ~ b B | ' $ | c B * ( 1 n [ u m Z 9 o - - & & #.b e 1 # /                 ",
"                ) * @ ..B 3 M * * * _ {.].3 1 3 / * * # 3 !.3 ^ * / 4 3 , ( A W ^.` >. ./.& - - [ (.A B ..@ * '.                ",
"                = * * = = # = ^ = * # z $ / $ ^ ^ +.) * * ' > +.# * = ^ , , , ,._.S o {.< - & { :.# * ) = * * $                 ",
"                > * # ' &.^ &.$ ^ / * , &.^ * # +.+.' / * $ , +.^ # * $ +.B B <.& & (.:.& - [.{.) {.(.[.(.= * $                 ",
"                &.* P 4 = * , P !.m 5 @ 1 4 $ * * , 4 b l , 4 3 @ B # * &.!.| }.& [ C D { $.b | |.K & & *.3 * $                 ",
"                / * 2 c ' * * * -.A c c b c B * * * $ 5 c 1 7 @ ' b 3 ) * ^ e %.& D q ).=.c H v & - & r =.5 # $                 ",
"                , * 2 e 4 $ * * * * ^ e 8 e e ^ * * * ) 4 d 1 ' # @ b 3 ) * 4 V & s e 8 p >.& - - - [ C 8 5 * $                 ",
"                , * 2 8 e 5 ~.* * * * 5 c m c c ..= * * B e R ' '.* @ m 6 ) 5 x Q =.H =.#.& - - & [ x e d 5 * $                 ",
"                , * 5 8 8 8 2 ^ # * * ' m P $ 3 c 1 ^ # $ c | ' : , * B b A 4 =.x v a p I - - & >.u 8 8 d 5 * $                 ",
"                , # 5 8 c t c c 5 , * # 4 1 ) * -.4 m 5 ^ 1 c ^ ^ | ^ * l c b Q & & u 1.& & o Q t c t m d 5 * $                 ",
"                , * 5 8 h 3 ' l ~ 7 6 , B c l * * ) B 7 m m b ' = ~ 7 ^ * ..8 *.& j p 2.r 1.X ).a >.T 3.d 5 * $                 ",
"                , * 2 8 e 3 * * * ~.B 1 m m 1 $ * * * / 2 e c @ * ) 2 | , # 4 *.; X u x p *.{ & & & n t d 5 * $                 ",
"                , # 5 8 8 e l * * * * $ 2 e c 5 $ * * * / e b @ ^ * = 2 7 ^ 3 X %.b c Z @.& - - & 2.Z d d 5 * $                 ",
"                / * 5 e 8 d e B # * * * l c !.1 7 P $ * * 5 =.3 ' 3 = > 2 1 4 h u Y q a & - - & >.p 5 8 d A * '.                ",
"                / * 6 e 8 8 d c 3 $ * * , m A 4.M !.m 3 $ G | @ , b 4 > $ 1 c p I @.N I - - K F b 4 8 8 d A * $                 ",
"                , * L d 8 e 1 8 m c 5 +.= A c $ * # ^ 4 | 4 | @ * $ 4 4 $ $ 1 9 K 1.a & S }.N C 3.k Z 8 d 5 * $                 ",
"                / * 3 d 8 e B = / G 1 c 4 !.t B * * * # ' 7 | ' / # = 3 7 , ' ;.n x @.F X $.@.- & 2.w 8 d A * $                 ",
"                $ * L d 8 8 c @ * * ) , ~ m c e ' = * * * A =.B +.~ , ) B 7 B b Z =.w x @.& - - T Z 8 8 d A * $                 ",
"                / * L e d 8 8 c A = * * _ 5 e h c 1 P $ * ^ b l +.m | P $ @ =.h x w 1.& - - - @.5.8 8 8 d 6 * '.                ",
"                $ * A e d 8 8 8 e 1 l $ * z m 7 @ 5 m 7 5 B 1 : ) $ 6 m 1 M @ c 1.Q K & - r 1.b 5 e 5 e d 6 * '.                ",
"                = * A e 8 8 8 8 e e c 7 A M ~ m G * / B 1 m | +.+.* * ' 7 c 6 !.q K I }.N p =.b e e e e d 6 * '.                ",
"                $ * A d 8 d 8 8 e .., l ~ 7 m t 1 '.* * = ^ 2 $ &.2 G = ~.P c m ` x f N }.r @.w 5 8 d e d 5 * '.                ",
"                ~.* A 8 8 d 8 8 d 2 '.* # $ ..c b 1 P z # * $ &.+.| b 1 l $ ' 4 m k v [ - [ N d d 8 d d d 5 _ '.                ",
"                = * M e e d 8 d d d 1 ^ * * * 3 h 4 4 b 1 B ^ ' $ B ' 2 b 1 G ^ b @.& & & k e 5 d 8 8 e e B * $                 ",
"                $ * * $ ..8 e 8 8 8 d c 3 z $ $ 4 ~ $ M 2 c | B $ 4 '.# -.5 m 7 m E I g 3.e 8 d 8 e 1 3 $ * * /                 ",
"                  +.) * * $ ..1 e 8 8 e c c c 2 7 c B $ ) $ ' ^ &.| | P , = -.A c i u w t d d e 8 3 $ * * = ,                   ",
"                      ^ ~.* * $ B 1 m 5 ' l A 2 1 e e | 2 B +.&.G b ~ !.b 4 l / @ i g K D t 1 B $ * * = '                       ",
"                          M $ * * $ B 4 ^ * * # ) G e h ~ 1 | M G m P = M 2 c c A b 0 & W P = * * $ ^                           ",
"                              M $ # * = B P z ( * * M | 3 $ , ^ , 4 c l * # , P 4 b  .6.$ * # $ M                               ",
"                                    $ # * } D  .].' $ B b A ^ &./ 3 t 1 B ^ ) * # ^ M ) # $ @                                   ",
"                                        7.U & [ D X | 1 e e 7 &.$ 1 e 8 e c ~ , ) * > M                                         ",
"                                      8.& & { 9.+.= M 4 e 8 4 = # 2 8 e 1 @ = $ @ ^ # = B                                       ",
"                                    % ; %       +.= * = M 4 1 = # 4 1 ' ) * ) ^       &.> M                                     ",
"                                  +                 ' = * ) , # # / ) * = '               ^ M                                   ",
"                                                        @ $ * * * * $ M                                                         ",
"                                                            @ $ $ @                                                             ",
"                                                                                                                                ",
"                                                                                                                                ",
"                                                                                                                                "};
