/* XPM */
static char * player_idle2_xpm[] = {
"64 64 25 1",
" 	c None",
".	c #BFBFBF",
"+	c #909090",
"@	c #000000",
"#	c #4A3C3C",
"$	c #2F2626",
"%	c #8F7777",
"&	c #302626",
"*	c #4D4037",
"=	c #E29D7B",
"-	c #A55244",
";	c #AB9484",
">	c #FFDAC1",
",	c #7B6352",
"'	c #FFFFFF",
")	c #283385",
"!	c #4B6CC0",
"~	c #C55340",
"{	c #829EE7",
"]	c #724D42",
"^	c #908A8A",
"/	c #2D1C17",
"(	c #482C25",
"_	c #BDBDBD",
":	c #625E5A",
"                                                                ",
"                                                                ",
"                                                                ",
"                                                                ",
"                                                                ",
"                                                                ",
"                                                                ",
"                                                                ",
"                                                                ",
"                                                                ",
"                                                                ",
"                ...                                             ",
"                ....                                            ",
"             ...... ++                      .                   ",
"            .....+   ++                    ..    .              ",
"           .....       +                  ...... .              ",
"           ....        ++                ...   ....             ",
"           ....         +                ..     ...             ",
"           ....                          .       ...            ",
"            ....                         .       ...            ",
"             . ..                              .....            ",
"               ...                   @          ....            ",
"                ..                  @@  @@@      ...            ",
"                 ..           @@@@ @#@@@#@       ...            ",
"                   .           @#$@#$$####@      ..+            ",
"                    .        @@@@#$########@     ++             ",
"                     .      @##%###########%@   ++              ",
"                     ..      @$##########%%##@  +               ",
"                      .     @####%##%%%#$##$$@@ +               ",
"                       .   @#$$##$#####$$####@  ++              ",
"              .             @&$#$$#&##$@$#$##@  ++              ",
"              .         *** @&&&&&$@#$@=@#$$#@   +              ",
"              .     ---*;;;*@&&@&&@@$@=>=@@$$@   +              ",
"           . ..    ->>*;;;,;@&@@@@@-@=>>>=@$@   +               ",
"           ...    ->>>*;;,;;;@->@@-')@=>=@@@                    ",
"          ...     ->>=*;;,;;;@-=@@='!)->-)@                     ",
"          ..     ->>=-@;;;;;;;@-@=~'{!>>>)-*                    ",
"          ..     ->>-  @,,;;;;;@--=>~>>>>----                   ",
"          ..    ->>-    @*,;;;;,==-=>----=>>>-                  ",
"          +.    ->>-     @*,;;;,,==--=>>>>>>>>-                 ",
"           +.+  ->>>-   @,,;;;;;@,=->>>=>>>>>=-                 ",
"             ++ ->>=-   @,;;,,;;@,@->>=>-@@@@@                  ",
"              ++-=>>-  @,,,;;,,;;@,@->=@@                       ",
"               + ---   @,;,,;;;;;,,@ @@+                        ",
"                      @,,;;;;;,,,,@   ++.                       ",
"                     @@@@@@,,;;;;,@    +..                      ",
"                     @@]@@]@^@@@@@@     +.                      ",
"                    @@/(]]]@_^_____::   ++                      ",
"                    @/((((@^_^_^^____:   +                      ",
"                    @/(((@^:_:^_______:  +                      ",
"                   @((((@@::^::^^^^____: +                      ",
"                   @/((@@@@@@@@@@@^^____:                       ",
"                  @///@  @((@@((((@:^^__:                       ",
"                  @/((@  @(((@@@(((@@:^^@                       ",
"                  @(](@   @@@@  @@@@@@@@                        ",
"                  @(]]]@                                        ",
"                  @@@@@@                                        ",
"                                                                ",
"                                                                ",
"                                                                ",
"                                                                ",
"                                                                ",
"                                                                ",
"                                                                "};
