/* XPM */
static char * player_walking2_xpm[] = {
"64 64 25 1",
" 	c None",
".	c #000000",
"+	c #4A3C3C",
"@	c #2F2626",
"#	c #8F7777",
"$	c #302626",
"%	c #E29D7B",
"&	c #FFDAC1",
"*	c #BFBFBF",
"=	c #A55244",
"-	c #FFFFFF",
";	c #283385",
">	c #4B6CC0",
",	c #4D4037",
"'	c #C55340",
")	c #829EE7",
"!	c #7B6352",
"~	c #AB9484",
"{	c #909090",
"]	c #625E5A",
"^	c #908A8A",
"/	c #BDBDBD",
"(	c #724D42",
"_	c #2D1C17",
":	c #482C25",
"                                                                ",
"                                                                ",
"                                                                ",
"                                                                ",
"                                                                ",
"                                          .                     ",
"                                         ..                     ",
"                                   .... .+......                ",
"                                    .+@.+@@+++.                 ",
"                                   ...+@+++++++.                ",
"                                  .+#+++++++++++.               ",
"                                 .+@++++++++++++#.              ",
"                                  .+++#++###+@+#@+.             ",
"                                 .+@++@+++++@@+++@..            ",
"                                .+@@+@@+$++@.@+@++.             ",
"                                 .$$$$$@.+@.%.+@@+.             ",
"                                 .$$.$$..@.%&%..@@.             ",
"                             **  .$.....=.%&&&%.@.              ",
"                          ****    .=&..=-;.%&%...               ",
"                       *****      .=%..%->;=&=;.                ",
"                      ***   ==....,.=.%'-)>&&&;=                ",
"                     ***   =%%!!,.!,.==%&'&&&&'=                ",
"                    ****  =%%%!,.!!!,%%=%&&&&%=                 ",
"                    *    =%%%%!.,!~~~,%%==&&%=                  ",
"                        =%%%=...!!~~~~,%!.===                   ",
"                        =%%%. .,!!!~~~~,.                       ",
"                       =%%%.  .!!!,!~~~~,     ===               ",
"                      *=%%=.  .!~~!,!~~~&=   =&&&=              ",
"                   *** =%%%. .!~~!!!.!~&&&===%&&&=              ",
"                ****{{ =%%%. .!~~~!!!..%&&&&&&&&=               ",
"               *{{{{   =%%.  .!!~~~~~~==%&&&&&%=                ",
"              {{{       =.  .!~!!~~!!!!.==&&%==                 ",
"             {{             .!~~~~~~~!.   ===                   ",
"            {{{  ***         ...!!~~~~.                         ",
"            {******        ]^//^.......      *                  ",
"         ********          ]/////^/^///]]   *                   ",
"        ****              ]^//^^^^/^/////]]**                   ",
"       **                 ]////^^]^]^^/////]                    ",
"      **                 ]^////^]...^///////]                   ",
"      *                  ]/////].  ..^^/////..                  ",
"                        ]^////].     .......(.                  ",
"                        .////].     .._::((((.                  ",
"                       .:./^..   ..._:::::::.                   ",
"                      .__(..:.   .:::_::_...                    ",
"                      ._::((.   .:::__...                       ",
"                     ._:::_.    .::_..{                         ",
"                     .:::.      .:_. {{                         ",
"                    .:::.       .:.  {{ **                      ",
"                    ._:.         ..  {***                       ",
"                   .___.             ****                       ",
"                   .___.           ****                         ",
"                   .::.           ****                          ",
"                   .:(.           * *                           ",
"                   .((.          *                              ",
"                    ..          **                              ",
"                             ****                               ",
"                            *                                   ",
"                                                                ",
"                                                                ",
"                                                                ",
"                                                                ",
"                                                                ",
"                                                                ",
"                                                                "};
