/* XPM */
static char * player_walking_xpm[] = {
"64 64 25 1",
" 	c None",
".	c #000000",
"+	c #BFBFBF",
"@	c #4A3C3C",
"#	c #2F2626",
"$	c #8F7777",
"%	c #302626",
"&	c #E29D7B",
"*	c #FFDAC1",
"=	c #A55244",
"-	c #FFFFFF",
";	c #283385",
">	c #4B6CC0",
",	c #4D4037",
"'	c #C55340",
")	c #829EE7",
"!	c #AB9484",
"~	c #7B6352",
"{	c #909090",
"]	c #625E5A",
"^	c #908A8A",
"/	c #BDBDBD",
"(	c #2D1C17",
"_	c #482C25",
":	c #724D42",
"                                                                ",
"                                                                ",
"                                                                ",
"                                                                ",
"                                                                ",
"                                                                ",
"                                                                ",
"                                                                ",
"                                                                ",
"                                                .               ",
"    +++++++                                    ..               ",
"   ++++   +++++                          .... .@......          ",
"    ++         +                          .@#.@##@@@.           ",
"    ++                                   ...@#@@@@@@@.          ",
"     ++                                 .@$@@@@@@@@@@@.         ",
"      +++                              .@#@@@@@@@@@@@@$.        ",
"         +                              .@@@$@@$$$@#@$#@.       ",
"                 +                     .@#@@#@@@@@##@@@#..      ",
"                 +++                  .@##@##@%@@#.#@#@@.       ",
"                   ++++                .%%%%%#.@#.&.@##@.       ",
"                        ++             .%%.%%..#.&*&..##.       ",
"                                       .%.....=.&***&.#.        ",
"                                        .=*..=-;.&*&...         ",
"                                        .=&..&->;=*=;.          ",
"                                    ....,.=.&'-)>***;=          ",
"                                  ,,!!!!!,.==&*'****'=          ",
"           ++                   =,!!!!!!!~,&&=&****&=           ",
"            +++  ++++         ==*.!!!!!!!!!,&&==**&=            ",
"  ++++        +++++          =***.!!!!~~!!!!,&=.===             ",
" +++++++                    =****&.~~~,,~!!!!,.~.               ",
" ++    ++                   =***&==..,,~~~!!!!~+.               ",
" ++     ++                  =**&=   .~!!~~~!!!~{+               ",
"  +       ++               =***=   .~!!~~~~~~~{{{    ==         ",
"           ++              =**&=   .~!!!~~~~~,,,.   =**=        ",
"             +             =**=    .~~!!!!!!,.,.&===&**=        ",
"                           =***=  .~!~~!!~~~...&&&=*&**=        ",
"                           =**&=  .~!!!!!!!~. =&&&***&=         ",
"                           =&**=  ]...~~!!!!.  =&&**==          ",
"                            ===  ]^//^......    ====            ",
"                                 ]////]^]^^.                    ",
"                                 ]/////]]^^.+                   ",
"                                 .^////]]^/^.+                  ",
"                                  ./////]^//. ++                ",
"                                  .^////]^//. ++++              ",
"                                ....^////]^^.   +++             ",
"                           .....(__..^///]^.    +               ",
"                          ._________.^///...                    ",
"                          .___(((___..^/.::.                    ",
"                         .__(.....(__(..:__.                    ",
"                         ._(.     ..((.(____.                   ",
"                         ._.        ....____.                   ",
"                         ..            .(___.                   ",
"                                        .(___.                  ",
"                                         .(__.....              ",
"                                          .______.              ",
"                                          .(___..               ",
"                                           .__.                 ",
"                                           ...                  ",
"                                                                ",
"                                                                ",
"                                                                ",
"                                                                ",
"                                                                ",
"                                                                "};
