/* XPM */
static char *wall[] = {
/* columns rows colors chars-per-pixel */
"64 64 152 2 ",
"   c None",
".  c #192E13",
"X  c #1B3116",
"o  c #1D3419",
"O  c #1D391F",
"+  c #20371A",
"@  c #243B1E",
"#  c #1E3D24",
"$  c #233F23",
"%  c #1F432D",
"&  c #1C4C33",
"*  c #175E3C",
"=  c #1E5C39",
"-  c #204126",
";  c #2B4324",
":  c #2F4B27",
">  c #21452C",
",  c #24482E",
"<  c #314F29",
"1  c #2C5C2B",
"2  c #34532B",
"3  c #3D572E",
"4  c #214730",
"5  c #254C33",
"6  c #265036",
"7  c #2B5336",
"8  c #2A563B",
"9  c #255D3E",
"0  c #2B583C",
"q  c #315333",
"w  c #345831",
"e  c #33692A",
"r  c #3D7C2B",
"t  c #2D643C",
"y  c #266B3F",
"u  c #2A6B3D",
"i  c #306239",
"p  c #3B6E3C",
"a  c #2F7836",
"s  c #26753F",
"d  c #28773E",
"f  c #2C793B",
"g  c #347D36",
"h  c #3F703E",
"j  c #317C39",
"k  c #47542E",
"l  c #4C562E",
"z  c #43582F",
"x  c #4F582F",
"c  c #50592F",
"v  c #4C5432",
"b  c #4D5B30",
"n  c #4B5139",
"m  c #425A3E",
"M  c #515735",
"N  c #535C32",
"B  c #53573A",
"V  c #55583E",
"C  c #595D3C",
"Z  c #496636",
"A  c #54613E",
"S  c #40723E",
"D  c #235F40",
"F  c #076A47",
"G  c #0D6C46",
"H  c #166342",
"J  c #1D6442",
"K  c #136C45",
"L  c #186B44",
"P  c #1C7143",
"I  c #226140",
"U  c #227341",
"Y  c #357C45",
"T  c #525540",
"R  c #5C5D43",
"E  c #5F5C4F",
"W  c #645F4D",
"Q  c #635F52",
"!  c #476341",
"~  c #4B6444",
"^  c #5E6042",
"/  c #427740",
"(  c #4D7744",
")  c #477E43",
"_  c #4A7C44",
"`  c #527A49",
"'  c #616046",
"]  c #65614D",
"[  c #696351",
"{  c #676D54",
"}  c #696E57",
"|  c #6F6959",
" . c #72675C",
".. c #3F8126",
"X. c #3E852D",
"o. c #378034",
"O. c #3B8332",
"+. c #388039",
"@. c #418426",
"#. c #448A26",
"$. c #488C27",
"%. c #40862B",
"&. c #438929",
"*. c #498D29",
"=. c #4E912A",
"-. c #54952E",
";. c #57982F",
":. c #448934",
">. c #468A38",
",. c #539434",
"<. c #5B9B32",
"1. c #52923E",
"2. c #58963B",
"3. c #5B993B",
"4. c #609F34",
"5. c #619E3C",
"6. c #65A236",
"7. c #67A438",
"8. c #69A539",
"9. c #6DAA3B",
"0. c #72AE3D",
"q. c #75B13F",
"w. c #529140",
"e. c #629F40",
"r. c #6AA642",
"t. c #71AC40",
"y. c #77B240",
"u. c #79B440",
"i. c #7EB940",
"p. c #83BD3F",
"a. c #86C13F",
"s. c #89C33F",
"d. c #8AC53F",
"f. c #8DC73F",
"g. c #8EC93F",
"h. c #90CA3F",
"j. c #92CD3E",
"k. c #94CF3E",
"l. c #97D13E",
"z. c #9BD53E",
"x. c #9DD73E",
"c. c #9ED93E",
"v. c #A2DD3D",
"b. c #A4DF3D",
"n. c #A6E23D",
"m. c #A8E33D",
"M. c #ABE73D",
"N. c #AFEA3C",
"B. c #B0EC3C",
"V. c #B4F03C",
"C. c #80BB40",
"Z. c #83BD40",
/* pixels */
"                                                                                                                                ",
"                                                                                                                                ",
"                                                                                                                                ",
"                                                - 1 @.$.$.$.O.P G K g $.$.#.#.e >                                               ",
"                                          8 J a ....&.6.9.<.&.o.P j <.9.7.$.#.@.r @.@.i                                         ",
"                                      & H J K f -.6.6.0.u.0.<.&.o.<.0.u.q.7.6.6.<.#.%.u g                                       ",
"                                      = d K F >.7.y.u.y.y.u.0.<.<.0.u.y.y.u.u.u.6.#.%.P f O.                                    ",
"                                    f f X.d U 1.0.y.y.y.y.y.y.y.y.y.y.y.y.y.y.0.<.&.o.P G f X.                                  ",
"                                  #.&.$.#.&.&.&.<.q.y.y.y.y.u.i.i.u.u.i.i.u.y.<.$.O.U P U U f #.                                ",
"                                #.#.<.7.$.#.#.#.<.q.y.u.u.y.a.n.n.d.j.M.v.i.y.<.#.&.X.%.5.3.%.#.                                ",
"                              #.#.<.0.q.7.$.#.#.<.q.u.l.v.g.s.N.B.n.M.B.M.i.y.<.#.#.$.6.0.0.<.#.#.                              ",
"                              #.o.,.9.u.q.6.4.4.8.y.i.n.V.n.c.B.B.B.B.M.k.u.y.8.<.<.6.q.u.9.<.#.#.                              ",
"                              &.U d ,.9.y.y.y.y.y.y.u.l.M.B.N.b.N.B.M.k.y.y.y.p.g.a.u.y.9.<.#.#.#.                              ",
"                              &.d P +.<.q.y.i.p.i.y.u.p.v.N.v.f.M.B.x.p.p.u.C.v.B.b.u.q.<.$.#.#.%.&.                            ",
"                            #.#.&.&.<.0.y.u.c.N.c.i.i.v.B.c.g.M.B.B.N.N.v.p.v.B.B.v.u.y.0.<.$.&.d X.                            ",
"                            #.$.6.9.0.y.y.u.v.B.N.c.p.n.B.N.m.B.B.B.B.B.M.p.n.B.v.p.u.y.y.0.9.7.:.&.#.                          ",
"                            $.6.0.g.c.k.u.y.d.b.B.M.p.n.B.n.x.N.B.c.j.j.g.i.g.k.s.y.u.l.x.d.u.0.$.#.#.#.                        ",
"                            -.0.u.c.V.M.j.i.y.d.c.l.i.l.c.f.a.N.B.d.p.s.y.y.y.y.y.i.k.N.B.l.y.0.$.#.#.#.                        ",
"                            >.0.u.k.M.B.N.p.y.y.y.y.y.y.p.a.h.b.n.j.c.n.a.u.y.y.y.s.N.B.M.h.y.0.;.$.#.#.                        ",
"                          F Y t.u.u.j.N.m.p.y.u.i.i.u.i.c.N.v.C.i.x.N.B.n.i.i.i.u.a.M.M.f.u.y.y.0.-.#.#.                        ",
"                          F Y t.q.y.i.p.p.u.y.j.M.v.p.c.N.B.b.u.y.i.x.B.m.p.c.M.l.u.p.p.u.y.y.y.0.-.#.#.                        ",
"                        G U O.,.<.9.y.y.y.y.y.l.B.N.b.N.B.b.s.u.y.y.p.g.j.v.N.B.x.y.y.y.y.u.9.<.<.$.g s                         ",
"                        G d #.#.#.;.6.8.q.y.y.s.v.B.B.c.l.d.y.y.y.y.y.t.p.N.B.v.d.y.y.y.8.9.0.<.#.#.d F                         ",
"                        F d &.o.&.#.#.-.q.y.y.y.a.v.c.p.p.g.a.y.y.a.g.a.p.c.v.d.y.y.y.q.;.4.u.0.<.$.d F                         ",
"                        G s o.d X.#.$.<.q.y.y.y.u.u.u.u.x.B.n.a.p.v.B.v.u.u.u.u.y.y.y.q.<.4.0.y.0.-.f P                         ",
"                        K K U X.#.#.<.0.y.y.y.y.y.y.y.y.z.B.B.N.N.N.B.c.u.y.y.y.y.y.y.y.q.4.<.0.0.-.%.%.                        ",
"                        K G P %.#.j w.y.y.y.y.y.y.y.y.y.p.z.B.B.B.B.c.p.y.y.y.y.y.y.y.y.u.4.$.;.-.$.#.#.                        ",
"                        G G K d f f 2.u.q.6.9.u.y.y.y.y.y.Z.j.j.j.j.a.y.y.y.y.u.9.<.4.0.u.9.6.4.$.#.o.f                         ",
"                        J J G G G g ;.6.6.<.9.9.9.y.y.y.9.9.y.y.y.y.9.9.y.y.y.9.<.#.$.6.0.u.0.6.$.o.U G                         ",
"                        0 9 K G G g #.$.<.0.u.4.<.q.y.0.;.;.0.y.y.0.<.-.9.y.y.<.#.#.#.#.5.r.3.O.o.P G G                         ",
"                        0 0 9 K G j &.-.0.y.q.<.<.q.0.;.#.#.;.0.0.<.$.*.;.0.q.<.&.&.#.#.j U P K K K G G                         ",
"                        0 0 9 K G L j -.0.q.<.$.<.9.;.#.#.#.$.=.=.$.<.0.9.<.9.<.g d &.#.%.f G G G G G K                         ",
"                        0 0 0 K G G f $.;.<.$.#.*.;.#.#.#.#.#.#.#.#.6.u.q.8.<.=.j K f &.#.j G G G G J 9                         ",
"                        0 0 J K G L u r %.j j j o.#.#.#.#.#.%.g &.#.;.8.u.q.-.#.X.d K f j U G G K J 9 8                         ",
"                        0 9 G G L 9 0 t g P G P j #.#.#.#.%.j P X.#.#.-.8.e.>.X.#.O.K G G G G G K 9 0 0                         ",
"                        0 9 K K 9 0 0 9 K G G j #.#.X.%.%.j K P X.#.&.X.o.P K j X.o.K K K K K K L 9 0 0                         ",
"                        8 0 0 0 0 0 0 9 K G G j &.X.U t y K G P X.#.j L L K G K P K K 9 0 J J 0 0 0 8 8                         ",
"                        4 5 0 0 0 0 9 K G G G P U U 9 0 0 J G P X.#.j H I K G G G G G L 9 0 0 0 0 0 5 4                         ",
"                          4 5 8 0 0 I G K I I L K D 0 0 0 0 J K d f y 9 0 I K G L J G G 9 0 0 0 0 5 4                           ",
"                            > 5 8 0 9 J J 0 0 9 = 0 0 0 0 0 0 J J J 9 0 0 0 I * 9 0 J J 9 0 0 8 6 >                             ",
"                            % > 6 8 8 0 0 0 7 - - 8 0 0 0 0 0 0 0 0 0 0 0 0 0 - # 6 0 0 0 8 8 6 > %                             ",
"                              % % % 5 8 8 8 - . - 8 0 0 0 0 0 0 0 0 0 0 0 0 8 - . # 7 8 8 5 % > %                               ",
"                                o o o O O O o . $ 8 0 0 0 0 0 0 0 8 0 0 8 8 - o . X O O O o # %                                 ",
"                                    @ @ @ X . . o > 8 0 0 0 0 0 0 , 5 6 - # o . . . X @ @ @                                     ",
"                                      ; ; @ @ o . o > > 6 0 8 , > o # - . . + o . X @ ; ;                                       ",
"                                        ; ; ; @ . X o X - 5 > X o + X . X + @ o X @ ; ;                                         ",
"                                          ; ; @ X X ; + o o o o ; ; @ X + ; o X @ ; ;                                           ",
"                                              ; $ o ; ; ; ; ; ; ; ; ; ; ; ; + @ ;                                               ",
"                                              2 2 : ; ; ; ; ; ; ; ; ; ; ; ; : 2 2                                               ",
"                                                z 2 < < < : ; ; ; ; : < < < 2 z b                                               ",
"                                              k b z z 3 2 2 : : : : 2 2 2 z z b l                                               ",
"                                          S m V C N N z 3 3 3 3 3 3 3 3 z N N C V m S                                           ",
"                                        / 7 E  .] v N N N N N N N N N N N N l W  .Q q /                                         ",
"                                      ) / 7 E  .] v N N N N N N N N N N N N l W  .Q q / )                                       ",
"                                      ) ) S m T B M ] [ R x N N N N c C [ [ B B T m h ) )                                       ",
"                                      ) ) ) p w n W  . .R l C ] ] C l R  . .] n w p ) ) )                                       ",
"                                      ) ) ) ) p ! }  .[ V l C  . .^ l B [  .} ~ p ) ) ) )                                       ",
"                                        ) ) ) ) ) ` { A l M '  . .' M l A { ` ) ) ) ) )                                         ",
"                                          ) ) ) ) ) _ _ Z R | | | | R Z _ _ ) ) ) ) )                                           ",
"                                              ) ) ) ) ) / ( ` ` ` ` ( / ) ) ) ) )                                               ",
"                                                      ) ) ) ) ) ) ) ) ) )                                                       ",
"                                                        ) ) ) ) ) ) ) )                                                         ",
"                                                                                                                                ",
"                                                                                                                                "
};
