/* XPM */
static char *sprites3_resized[] = {
/* columns rows colors chars-per-pixel */
"64 64 137 2 ",
"   c None",
".  c #0A304F",
"X  c #13324D",
"o  c #0C3355",
"O  c #02355E",
"+  c #08355A",
"@  c #0C395E",
"#  c #113656",
"$  c #133C5E",
"%  c #193D5B",
"&  c #203F59",
"*  c #013661",
"=  c #0F3C61",
"-  c #133E60",
";  c #1C405E",
":  c #21435F",
">  c #144065",
",  c #1C4363",
"<  c #234663",
"1  c #264865",
"2  c #2B4B65",
"3  c #224868",
"4  c #2C4D69",
"5  c #314E64",
"6  c #304F68",
"7  c #355167",
"8  c #34526A",
"9  c #3A556B",
"0  c #3C586F",
"q  c #375874",
"w  c #3B5A73",
"e  c #455B6D",
"r  c #4B5E6E",
"t  c #425C71",
"y  c #4B5F70",
"u  c #415F7A",
"i  c #4F6474",
"p  c #4D6579",
"a  c #536574",
"s  c #5C6A76",
"d  c #576A79",
"f  c #5C6D7A",
"g  c #636E76",
"h  c #616F7A",
"j  c #64727C",
"k  c #6B757D",
"l  c #75797C",
"z  c #5D7182",
"x  c #5C768A",
"c  c #657582",
"v  c #6B7780",
"b  c #6D7982",
"n  c #657B8E",
"m  c #6B7D8D",
"M  c #747D83",
"N  c #787E83",
"B  c #727F8A",
"V  c #697F91",
"C  c #7C8286",
"Z  c #7D8389",
"A  c #7F888E",
"S  c #6B8294",
"D  c #7C8892",
"F  c #7C8D9C",
"G  c #828485",
"H  c #82878B",
"J  c #85888B",
"K  c #8A8C8D",
"L  c #93918E",
"P  c #8E8F90",
"I  c #8C9093",
"U  c #949493",
"Y  c #989693",
"T  c #9B9996",
"R  c #9D9B99",
"E  c #A09C97",
"W  c #A29E9A",
"Q  c #A5A19C",
"!  c #AAA49E",
"~  c #8293A0",
"^  c #8898A4",
"/  c #909AA2",
"(  c #9A9CA0",
")  c #97A4AE",
"_  c #98A4AD",
"`  c #A2A1A0",
"'  c #ACA7A1",
"]  c #AEA9A3",
"[  c #AEABA9",
"{  c #B3ACA5",
"}  c #B8AFA6",
"|  c #B3AEA9",
" . c #B9B0A7",
".. c #B6B1AC",
"X. c #BAB2A9",
"o. c #A1ACB5",
"O. c #B6B4B2",
"+. c #BAB6B2",
"@. c #BDBAB5",
"#. c #BEBCB9",
"$. c #C0BCB7",
"%. c #C1BDBA",
"&. c #C4C1BE",
"*. c #C8C5BF",
"=. c #B7BCC0",
"-. c #BBBFC2",
";. c #BDC3C8",
":. c #C5C4C2",
">. c #C9C6C4",
",. c #CBC9C6",
"<. c #C5C9CD",
"1. c #CDCCCA",
"2. c #D0CECC",
"3. c #D2D0CE",
"4. c #D4D4D3",
"5. c #D8D7D5",
"6. c #D9D8D7",
"7. c #D0D5D9",
"8. c #DCDCDB",
"9. c #E0DFDE",
"0. c #E1E0DF",
"q. c #DEE0E1",
"w. c #E4E3E3",
"e. c #E8E7E7",
"r. c #E8E8E7",
"t. c #E7E8E8",
"y. c #ECEBEB",
"u. c #F0EFEF",
"i. c #F0F0EF",
"p. c #EFF0F0",
"a. c #F4F4F3",
"s. c #F7F8F7",
"d. c #F8F8F7",
"f. c #F7F7F8",
"g. c #F8F7F8",
"h. c #F7F8F8",
"j. c #FDFDFD",
/* pixels */
"                                                                                                                                ",
"                          X #                                                                                                   ",
"                          # O o                                                                 y.h.4.                          ",
"                            O * O                                                             a.j.h.                            ",
"                            O * * +                                                         a.j.j.a.                            ",
"                6.p.p.y.y.8.w O * * , #.h.s.f.a.a.a.a.a.f.a.a.a.a.a.a.f.a.a.a.a.a.f.f.y.4.y.j.j.j.6.w.y.y.y.p.4.                ",
"                y.j.j.j.j.j.o.@ * * * q 7.j.d.j.h.h.h.s.f.f.f.j.j.h.j.g.h.h.h.j.h.j.h.w.e.j.j.j.p.8.j.h.j.j.j.8.                ",
"                p.h.#.R ' +...e * * * * 8 R $.@.@.X.+...| ..%.j.d.:.$.%.%.$.$.@.#.@.+.w.j.j.j.j.:...@...[ #.j.8.                ",
"                a.f.@.g 7 E X.Q 4 * * * O , K  . . . .X.X.X.$.g.f.{ } X. .X. . . .} 6.j.j.j.j.4.}  .{ 4.+.+.h.8.                ",
"                p.f.$.Z O < G $.U 3 * * * O 5 ] $.X.X.X.X.X.$.h.a.{ X.X.X.X.X.X. .2.j.j.j.j.8.{ } ..w.a...@.j.8.                ",
"                y.h.@.Q , O % k } Y 1 * * * 8 J G } X.X.X. .$.h.a.{  .X.X.X.X.! ! 6.j.j.j.8.{ } @.y.j.8.] @.j.8.                ",
"                y.f.+.X.d O * @ a ' Y 4 * * 9 C % C X.X. .X.$.h.a... .X.X.X.X.&.{ 4.j.j.4...{ 1.f.j.j.&.} @.j.0.                ",
"                e.s.@.X.U - * * O 9 R R 7 O 0 Z O $ N X.X. .@.h.a... .X. .X.0.w.] 3.s.:.{ ..8.j.j.j.y...X.@.j.0.                ",
"                w.s.@.X.X.f O * * * 1 K Q 0 w Z + * $ M X.X.@.h.f... . .| 0.j.5.' :.*.{ $.y.j.j.j.j.:.X.X.@.j.w.                ",
"                w.s.` !  .{ d + O * * $ b ' K K @ * O @ b X.@.h.f...} [ 0.j.j.1.{ ! } *.s.j.j.j.f.>.} } } +.h.e.                ",
"                w.a.p < e M Q b > O * O < ! ] R ; * * * = k +.h.a.| | 0.j.j.j.:.} ! ! 2.j.j.j.y.+.] $.3.8.1.h.e.                ",
"                w.h.D + O O 9 L P 1 O * % L r H K 3 O * * @ c p.a.+.y.j.j.h.1.} +.&.] 4.j.h.5.| +.w.h.j.e.+.j.e.                ",
"                e.h.+.i O * * - v U y O $ U 9 @ b P 2 O * * 4 q.y.e.j.j.h.:.] @.y.4.! 8.a.&.] ,.a.j.j.h.@.@.j.y.                ",
"                w.h.@.Q 9 O * * * 9 K j % Z a O O a P 7 O 1 P w.t.p.j.f.,.] :.a.j.,.{ 1...| 8.j.j.j.j.,.{ @.j.y.                ",
"                w.j.X.X.W 9 O * * * - k G J N O * * 9 J a U #.q.t.a.y.@.{ 2.h.j.f.+.Q ] +.y.j.j.j.j.1.}  .#.j.a.                ",
"                w.h.| L { ] f = * * * $ U E Y - * * O a { 1.f.w.e.8.+.] 2.j.j.j.2.{ ] { 5.j.j.j.a.&.} | } +.j.p.                ",
"                w.h.[ 5 6 C ' J 2 O * @ J e d g , O 4 T 1.h.j.w.w.....6.j.j.h.:.] *.1.! 6.j.j.8...{ $.9.8.+.j.a.                ",
"                w.h...a O O 2 N T d $ O b a O 2 s r U 2.h.j.j.q.a...8.j.j.a.@.] 2.h.1.{ r.y.:.{ +.0.j.j.<.+.j.a.                ",
"                w.h.@.P = * O @ 7 K K 9 e N O O < T :.h.j.j.6.y.6.#.h.j.y...| 8.j.h.#.{ 1.| | 4.f.j.j.y...$.j.a.                ",
"                w.g...X.d O * * * $ N { G L 1 O 2 | u.j.j.4.O.6.1.O.j.q.[ +.t.j.j.y.| { ! &.a.j.j.j.h.$...$.j.a.                ",
"                e.h...} ' y O O * * 3 R L ] J @ 5 ..g.j.1.{ [ y.6.[ 1.' #.p.j.j.t.+.{ ] } a.j.j.j.h.>.} } #.j.a.                ",
"                r.j.4.,.1.&.m @ * * O B D 6 P / c &.g.w.:.+.e.j.8.:.O.:.h.j.j.e.:...:.-.;.d.j.j.j.5.:.1.,.4.j.f.                ",
"                y.j.j.a.f.j.h._ , O * q ;.3 = V <.w.w.w.8.a.j.h.q.p.6.j.j.f.q.8.8.y.e.y.0.h.j.a.8.a.h.a.a.j.j.a.                ",
"                y.j.a.m u m ;.f.;.u * O _ m O O x 1.1.q.y.j.h.8.q.w.y.j.e.6.q.q.h.j.8.t.w.j.e.8.y.t.8.t.6.h.j.p.                ",
"                y.j.:.j O O - z [ ' v , 9 C @ O t [ O.t.j.h.1.4.:.+.w.2.' +.w.j.j.y.+...4.$.] O.>.w.j.a.+.>.j.t.                ",
"                y.h.$.W < O * O 1 N { W s G 9 O i } 8.j.f.:.' 6.4.| ..{ $.y.j.j.j.1.{ ' { { &.9.j.j.j.6.{ @.j.e.                ",
"                y.j.$.X.C @ * * * O 6 U X.} Z O p +.j.f.:.' 4.h.6... .+.f.j.j.j.8.} } X.} 8.j.j.j.j.y.+.} @.j.w.                ",
"                y.j.$. .} k @ O * * O y W N W b k $.f.%.] 4.j.r.6.` } 1.j.j.a.,.{ { ] { $.j.j.j.j.u.$.} X.@.j.w.                ",
"                y.j.$. .X.X.J 6 O * * $ U e 1 k W +.&.' 1.j.w.7.6.[ { y.h.8...{ :.y.>.] 6.j.j.h.8.@.X.X.X.$.j.w.                ",
"                y.j.$. .] ! { ! b 3 O O h J O O b ' { 2.j.8.[ 8.8.{ ..8.$.] +.9.j.f...+.h.j.w.$.{ { ! { X.$.h.w.                ",
"                y.j.$. .l ; 6 e s H h < : U 7 O j X.,.j.8.| #.a.6.' ] ] | 1.f.j.j.2.{ 1.w.%.| #.2.6.:.Q X.$.j.w.                ",
"                y.j.$. .! 5 O O O , j U k J H + j +.h.w.[ @.f.j.4.{ } @.e.j.j.j.y...] ] ..1.u.j.j.j.:.} X.@.j.w.                ",
"                y.j.$. . .L : O * * O 2 L { ' i H :.8.| @.a.j.8.4.' } e.j.j.j.y.$.{ } @.y.j.j.j.j.2.} X.X.$.h.w.                ",
"                r.j.&. .X.$.U 6 O * * O e G r J Q +...@.p.a.:.6.:.W $.j.j.y.>.| ..O.{ 2.j.j.j.h.1.}  .X.} $.j.e.                ",
"                y.j.&. .X.X.+.' d - * * $ M 2 $ U { ..y.p.+.' w.4.[ 3.y.:.] O.5.i.&.] w.j.j.y.:.{  .X.X.} %.j.e.                ",
"                y.j.$. .X.L g l C M t = O e h - R ..y.y.+.+.y.j.4.[ +.[ +.8.h.j.y.{ &.a.q.$.{ ] X...} X. .*.j.w.                ",
"                y.j.&. .X.Y : O * 2 v H d 2 k 5 T 6.w.| :.a.h.e.6.[ | 6.h.j.j.j.1.! O.+.{ ..3.e.a.1.} X. .:.j.e.                ",
"                y.j.&. .X.X.L ; * * O 2 k Y W L ' 1.| 1.f.w.#.q.1.W &.j.j.j.a.6.} { ] #.w.f.j.j.4.{ X.X. .*.j.y.                ",
"                r.j.%. .X.X.X.I 2 * * * O h Y k Q W 4.y.>.[ ] q.2.' 8.j.y.>...{ Q } $.d.j.j.a.&.{ X.X. .} *.j.e.                ",
"                r.j.%. .} $.} $.' h < * O - b h { 4.5...] %.y.f.7...1.$.| ] $.4.| ] 0.j.y.2...} X.X.X. .} &.j.y.                ",
"                r.j.%. .} } } } ' W U M t $ - G O.%.{ | 6.j.j.q.q.[ ] ..1.e.j.3.] #.5.&.| { } } X.X.X.X.} &.j.a.                ",
"                r.j.$. .}  .X.$.Y 2 < t M K k P ] { >.u.a.3.@.t.y.@.8.a.j.j.r...! ] | #.2.w.,.} X.X. .X. .&.j.y.                ",
"                r.d.$. . . .X. . .M @ * @ 1 g ] +.6.y.2...' [ q.t.y.j.h.0.>...' { ,.y.h.j.r.@. .X.X. .X.X.&.j.u.                ",
"                y.j.1.} } X.X. .$.} g O O O 2 ' 8.3...' @.6.1.y.6.8.1...' +.+.Q :.j.j.j.8... . . .X. .} } 5.j.a.                ",
"                e.j.j.y.:...} X. .X.} l 4 $ a ] | ] $.9.h.r.+.y.1.[ { @.5.y.#.+.y.y.0.:.{  .X.X.X.} X.,.y.j.j.y.                ",
"                  w.a.j.j.y.:.X.}  . .! Y J E { &.9.a.w.>.[ [ t.8.6.y.f.y.1.{ | @.{ { { } X.X.} ..,.y.j.j.f.q.                  ",
"                      6.a.j.j.y.1...! 9 - 4 E 4.e.2.+.' O.#.' 3.t.q.1.@.[ } } ..@.&.2.6.$.] ..1.y.j.j.u.8.                      ",
"                          8.y.j.j.a.>.c O 8 ' &.{ { @.5.a.>.] 3.5.[ ..#.Q } 3.f.h.j.j.8.+.1.y.j.j.y.5.                          ",
"                              5.y.h.j.y.F D ' +.>.w.h.j.2.{ +.w.8.w.y.:.[ 5.j.j.g.0.>.1.a.j.h.y.5.                              ",
"                                  4.y.h.f.5.8.h.j.f.8.1...! :.e.t.8.&.' 1.y.6.-.D 9 o.j.h.y.                                    ",
"                                        5.p.j.f.w.#.{ } X.} ..y.t.| } } ..[ H 9 @ O > ~                                         ",
"                                      1.a.h.8.4.y.a.4...} X.@.h.a.+.X.} +.5.a.q.^ , O O .                                       ",
"                                    5.p.t.      8.f.j.f.6...+.h.a...+.5.a.j.a.q.      o + o                                     ",
"                                  5.8.              6.a.j.f.e.h.h.w.f.j.a.6.                X                                   ",
"                                                        5.y.j.j.j.j.y.4.                                                        ",
"                                                            4.y.y.4.                                                            ",
"                                                                                                                                ",
"                                                                                                                                ",
"                                                                                                                                "
};
