/* XPM */
static char * exit_xpm[] = {
"64 64 57 1",
" 	c None",
".	c #1F432D",
"+	c #2D612E",
"@	c #367B5F",
"#	c #0E6C46",
"$	c #448A26",
"%	c #77B240",
"&	c #B1ED3C",
"*	c #2B583C",
"=	c #316C4D",
"-	c #7B8A51",
";	c #254F26",
">	c #192F14",
",	c #477E43",
"'	c #74A75F",
")	c #6F6559",
"!	c #7E9184",
"~	c #877A6D",
"{	c #4A4A55",
"]	c #61594B",
"^	c #2B4324",
"/	c #35552C",
"(	c #535C32",
"_	c #72675C",
":	c #4B532D",
"<	c #4F585E",
"[	c #86D04E",
"}	c #A0B0B6",
"|	c #433E34",
"1	c #BFA68E",
"2	c #B38E69",
"3	c #93785D",
"4	c #753623",
"5	c #E2CDB9",
"6	c #CD443D",
"7	c #AC4234",
"8	c #DC837E",
"9	c #CA5D58",
"0	c #F9882D",
"a	c #F9AD2D",
"b	c #F9F62D",
"c	c #8D5D4F",
"d	c #C7A889",
"e	c #49271C",
"f	c #F7E1BC",
"g	c #FFF4E2",
"h	c #FFFFFF",
"i	c #F0D19C",
"j	c #7AD8F3",
"k	c #5DA3E8",
"l	c #19191D",
"m	c #C2F1FF",
"n	c #313A40",
"o	c #C1C6C1",
"p	c #4F84A1",
"q	c #276B75",
"r	c #000000",
"                                                                ",
"                                                                ",
"                                                                ",
"                                                                ",
"                                                                ",
"                                                                ",
"                                                                ",
"                                                                ",
"                                                                ",
"                                                                ",
"                                                                ",
"                                nnnnn^^                         ",
"                            nnnnnnnnn^^|                        ",
"                       |^^>ll..nnnnn.^^^|                       ",
"                      ||^^>lllllllllll>^^|                      ",
"                     ||^^>llllllllllll>>^nn{                    ",
"                    ||llllllllllllllllll.nn{{                   ",
"                   ||^lllllllllllllllllllnnn{{                  ",
"                  nn^^llllllllllllllllllllnnn{{                 ",
"                  nn^>lllllllllllllllllllllnnn{{                ",
"                 nnnllllllllllllllllllllllllnnn{{               ",
"                 nnnlllllllllllllllllllllllllnn{{               ",
"                {{nnlllllllllllllllllllllllllnn{{               ",
"               {{nnnlllllllllllllllllllllllllnn{{{              ",
"              {{nnnnlllllllllllllllllllllllllnnnn{{             ",
"              {nnnn.lllllllllllllllllllllllllnnnn{{             ",
"             nnnnnllllllllllllllllllllllllllllnnn{{             ",
"             nnnn.lllllllllllllllllllllllllllllnn{{             ",
"            {nnnllllllllllllllllllllllllllllllllnnn             ",
"           {{{nnlllllllllllllllllllllllllllllllllnn             ",
"           {{{nnlllllllllllllllllllllllllllllllllnnn            ",
"           {{{nnlllllllllllllllllllllllllllllllllnn{            ",
"          ]{{{nnlllllllllllllllllllllllllllllllllnn{{           ",
"          ]{{{nnlllllllllllllllllllllllllllllllllnn{{           ",
"          ]{{nnnlllllllllllllllllllllllllllllllllnn{{{          ",
"          ]{{nnnlllllllllllllllllllllllllllllllllnn{{{]         ",
"         :|{{|nnllllllllllllllllllllllllllllllllln||{{|         ",
"         ||||||^lllllllllllllllllllllllllllllllll||||||{        ",
"        {{|||||^lllllll..................>>llllll|||||{{{       ",
"       {{{{||||^llllllnnnnnnnnnnnnnnnnnnn..llllll||||{{{{       ",
"      {{{{{||||^llllllnnnnnnnnnnnnnnnnnnn..llllll|||{{{{{{      ",
"     {{<<{{||||^llllllnnnn*************nnnnllllll||{{{{<<<{     ",
"     <<<<<<{|||nlllllnnnn**==========**nnnnnllllln|{{<<<<<<<    ",
"     ,,,,,,<{nnnl>..nnnn**=,,,,,,,,,,,=**nnnn..>lnn{{<,,,,,,    ",
"    ),,,,,,,<{*/;;*******=,,,,,,,,,,,,,=******/;/**{<,,,,,,,    ",
"   )_--,,,,,,,,,,,,,,,,,,,,,,,,,,,--,,,,,,,,,,,,,,,,,,,,,,--    ",
"   __---,,,,,,,,,,,,,,,,,,,,,,,,,,---,,,,,,,,,,,,,,,,,,,,---    ",
"   --'''''''''''''''''''''''''''''''''''''''''''''''''''''''    ",
"    -'''''''''''''''''''''''''''''''''''''''''''''''''''''''    ",
"    ''''''''''''''''''''''''''''''''''''''''''''''''''''''''    ",
"     '''''''''''''''''''''''''''''''''''''''''''''''''''''''    ",
"     '''''''''''''''''''''''''''''''''''''''''''''''''''''--    ",
"     '''''''''''''''''''''''''''''''''''''''''''''''''''''--    ",
"      ''''''''''''''''      '''''''''''''''''''''''''''''-      ",
"                                                                ",
"                                                                ",
"                                                                ",
"                                                                ",
"                                                                ",
"                                                                ",
"                                                                ",
"                                                                ",
"                                                                ",
"                                                                "};
