/* XPM */
static char * player_death1_xpm[] = {
"64 64 19 1",
" 	c None",
".	c #BFBFBF",
"+	c #909090",
"@	c #000000",
"#	c #4A3C3C",
"$	c #2B3D2D",
"%	c #2F2626",
"&	c #8F7777",
"*	c #3E5845",
"=	c #4C7F55",
"-	c #524A4A",
";	c #908A8A",
">	c #BDBDBD",
",	c #724D42",
"'	c #482C25",
")	c #2D1C17",
"!	c #FFDAC1",
"~	c #E29D7B",
"{	c #A55244",
"                                                                ",
"                                                                ",
"                                                                ",
"                                                                ",
"                                                                ",
"                                                                ",
"                                                                ",
"                                                                ",
"                                                                ",
"                                                                ",
"                                                                ",
"                                                                ",
"                                                                ",
"                                                                ",
"                                                                ",
"                                                                ",
"                                                                ",
"                                      .                         ",
"                                      .                         ",
"                                     ..                         ",
"                                     ..                         ",
"                                     ..                         ",
"                                      .                         ",
"                                      ..                        ",
"                                .     ...                       ",
"                                      ...                       ",
"                                     ....                       ",
"                                     .. .                       ",
"                                .   ..+ .                       ",
"                                ..  .+  +                       ",
"                                ..  ++                          ",
"                                 .  ++ +                        ",
"                                 .   + +        @               ",
"                                                @@  @           ",
"                                     +        @@##@ @           ",
"                                $$$$        @@#%&##@#@ @        ",
"                               $**==$$@ $@ @%######%##@@        ",
"                          --@@$**==**=*@=*@%%%%#######%@        ",
"      @@@    @@@@@@------;>>>$**==.*==$=*$@%%%###&###%@@        ",
"      @,'@@@@)',,@;>>>>>;>>>$**===.==*$=$@%!%####&######@       ",
"     @,''))''''',@;;>>>>;;;$***===*==**=$@~~%##%%#&#####@       ",
"    @''')))))))''@--;;;;--$***$==*$==**=$@~%@%%%###&#####@      ",
"    @@@@@@@@@@@))'@@---;->$**$$*=*$*=*$**@%@@@@####%%##%#@      ",
"               @@@  @@@->>$**$$*=*$+**$**@@~{~@#@@@@%#&%@       ",
"             )))     -;;>>$$*$$***$+**$$*@~!@!@@~~~@###%@       ",
"        ))))),,'))  ->>;>;;@*$$$**$$$$@$*@~!!@~~~~~@#%#@        ",
"       ),''',,''''@->>>;;;-@$*$$$$$$+$$@$@{!!~{~~~@%#%%@        ",
"       @''''''))'@;>>>;;;@@ @$*$$$$$$$$@@ @~!~~~{~@#%%%@        ",
"      @'')@@@)))'@;>;;;@@   @$$$$$$$$$@@   {{~~~{@@%@%@         ",
"      @')@   @@))'-;;-@      @$$@$$$@@@      {{{@ @@ @          ",
"      @)@      @@@@@@@        @@@@@@              @             ",
"      @@                                                        ",
"                                                                ",
"                                                                ",
"                                                                ",
"                                                                ",
"                                                                ",
"                                                                ",
"                                                                ",
"                                                                ",
"                                                                ",
"                                                                ",
"                                                                ",
"                                                                "};
