/* XPM */
static char * idle_xpm[] = {
"64 64 25 1",
" 	c None",
".	c #000000",
"+	c #4A3C3C",
"@	c #2F2626",
"#	c #8F7777",
"$	c #BFBFBF",
"%	c #909090",
"&	c #302626",
"*	c #E29D7B",
"=	c #FFDAC1",
"-	c #A55244",
";	c #FFFFFF",
">	c #283385",
",	c #4D4037",
"'	c #4B6CC0",
")	c #AB9484",
"!	c #C55340",
"~	c #829EE7",
"{	c #7B6352",
"]	c #625E5A",
"^	c #908A8A",
"/	c #BDBDBD",
"(	c #724D42",
"_	c #482C25",
":	c #2D1C17",
"                                                                ",
"                                                                ",
"                                                                ",
"                                                                ",
"                                                                ",
"                                                                ",
"                                                                ",
"                                                                ",
"                                    .                           ",
"                                   ..  ...                      ",
"                             .... .+...+.                       ",
"                              .+@.+@@++++.                      ",
"                            ....+@++++++++.                     ",
"                           .++#+++++++++++#.                    ",
"                            .@++++++++++##++.                   ",
"                           .++++#++###+@++@@..                  ",
"                          .+@@++@+++++@@++++.                   ",
"                      $$%  .&@+@@+&++@.@+@++.                   ",
"                   $ $$%%% .&&&&&@.+@.*.+@@+.                   ",
"                   $$$%%%%%.&&.&&..@.*=*..@@.                   ",
"                   $$$%   %.&.....-.*===*.@.                    ",
"                   $$$$     .-=..-;>.*=*...                     ",
"                    $$$$  ,,.-*..*;'>-=->.,                     ",
"                      $$,,))).-.*!;~'===>-),,  $                ",
"                     -,$){)))).--*=!====!-)----$                ",
"                    -*,)${)))){**-*====----*===-                ",
"                   -=*,)))))))){**--=*-*========-               ",
"                  -=***.))){{))){***--===*=====*-               ",
"                $$-==**-.){,)){)){*.)-==*=-.....                ",
"               $$--==*-  .,)))).){.)){-=*..                     ",
"              $$ -===-   .))))).{..){....                       ",
"              $ --==*-   .)){{)).{.{.                           ",
"               $-===-   .{{)){{{{{,.                            ",
"                -==*-   {){{))))){{.                            ",
"                -==-    {))))){{{{.                             ",
"                -===-   ...{{)))){.   $                         ",
"                -==*-  ]^//^.......    $                        ",
"                -*==-  ]/////^/^///]]  $$                       ",
"                 ---  ]^//^^^^/^/////]]$                        ",
"                      ]////^^]^]^^/////]                        ",
"                      ]////^]...^///////]                       ",
"                      ]////^.  ..^///////]                      ",
"                     ]^////]     ..^/////..                     ",
"                     .///^^.       .]/^..(.                     ",
"                    ._./^..         .^.((_.                     ",
"                    .:(.._.          .:__.                      ",
"                    .:_((..          .:_:.                      ",
"                   .:__:.           .:__.                       ",
"                   .:__.            .:_:.                       ",
"                   .__:.            .____.                      ",
"                   .:_.             .__((_.                     ",
"                  .:::.             .......                     ",
"                  .:__.                                         ",
"                  ._(_.                                         ",
"                  ._(((.                                        ",
"                  ......                                        ",
"                                                                ",
"                                                                ",
"                                                                ",
"                                                                ",
"                                                                ",
"                                                                ",
"                                                                ",
"                                                                "};
